<?xml version="1.0" standalone="no"?>
<svg xmlns:xlink="http://www.w3.org/1999/xlink" id="wave" style="transform:rotate(0deg); transition: 0.3s" viewBox="0 0 1440 380" version="1.1" xmlns="http://www.w3.org/2000/svg"><defs><linearGradient id="sw-gradient-0" x1="0" x2="0" y1="1" y2="0"><stop stop-color="rgba(31, 31, 31, 1)" offset="0%"/><stop stop-color="rgba(31, 31, 31, 1)" offset="100%"/></linearGradient></defs><path style="transform:translate(0, 0px); opacity:1" fill="url(#sw-gradient-0)" d="M0,0L60,25.3C120,51,240,101,360,133C480,165,600,177,720,158.3C840,139,960,89,1080,63.3C1200,38,1320,38,1440,82.3C1560,127,1680,215,1800,228C1920,241,2040,177,2160,145.7C2280,114,2400,114,2520,120.3C2640,127,2760,139,2880,133C3000,127,3120,101,3240,133C3360,165,3480,253,3600,259.7C3720,266,3840,190,3960,145.7C4080,101,4200,89,4320,107.7C4440,127,4560,177,4680,202.7C4800,228,4920,228,5040,209C5160,190,5280,152,5400,158.3C5520,165,5640,215,5760,253.3C5880,291,6000,317,6120,285C6240,253,6360,165,6480,114C6600,63,6720,51,6840,76C6960,101,7080,165,7200,215.3C7320,266,7440,304,7560,316.7C7680,329,7800,317,7920,316.7C8040,317,8160,329,8280,278.7C8400,228,8520,114,8580,57L8640,0L8640,380L8580,380C8520,380,8400,380,8280,380C8160,380,8040,380,7920,380C7800,380,7680,380,7560,380C7440,380,7320,380,7200,380C7080,380,6960,380,6840,380C6720,380,6600,380,6480,380C6360,380,6240,380,6120,380C6000,380,5880,380,5760,380C5640,380,5520,380,5400,380C5280,380,5160,380,5040,380C4920,380,4800,380,4680,380C4560,380,4440,380,4320,380C4200,380,4080,380,3960,380C3840,380,3720,380,3600,380C3480,380,3360,380,3240,380C3120,380,3000,380,2880,380C2760,380,2640,380,2520,380C2400,380,2280,380,2160,380C2040,380,1920,380,1800,380C1680,380,1560,380,1440,380C1320,380,1200,380,1080,380C960,380,840,380,720,380C600,380,480,380,360,380C240,380,120,380,60,380L0,380Z"/></svg>